<svg width="24" height="23" viewBox="0 0 24 23" fill="none" xmlns="http://www.w3.org/2000/svg">
<path d="M12 0C13.525 0 14.9875 0.605802 16.0659 1.68414C17.1442 2.76247 17.75 4.22501 17.75 5.75C17.75 7.27499 17.1442 8.73753 16.0659 9.81586C14.9875 10.8942 13.525 11.5 12 11.5C10.475 11.5 9.01247 10.8942 7.93414 9.81586C6.8558 8.73753 6.25 7.27499 6.25 5.75C6.25 4.22501 6.8558 2.76247 7.93414 1.68414C9.01247 0.605802 10.475 0 12 0ZM12 14.375C18.3538 14.375 23.5 16.9481 23.5 20.125V23H0.5V20.125C0.5 16.9481 5.64625 14.375 12 14.375Z" fill="white"/>
</svg>
