<svg width="24" height="24" viewBox="0 0 24 24" fill="none" xmlns="http://www.w3.org/2000/svg">
<path d="M16.7713 14.9654H15.7324L15.3642 14.6103C16.6976 13.064 17.4304 11.0896 17.4288 9.04774C17.4288 7.35716 16.9275 5.70454 15.9882 4.29887C15.049 2.89321 13.714 1.79762 12.1521 1.15066C10.5902 0.503704 8.87157 0.33443 7.21347 0.664246C5.55538 0.994063 4.03231 1.80816 2.83689 3.00358C1.64147 4.199 0.827376 5.72206 0.497559 7.38016C0.167743 9.03826 0.337017 10.7569 0.983975 12.3188C1.63093 13.8807 2.72652 15.2157 4.13219 16.1549C5.53786 17.0942 7.19047 17.5955 8.88106 17.5955C10.9983 17.5955 12.9445 16.8196 14.4437 15.5309L14.7987 15.8991V16.938L21.3739 23.5L23.3333 21.5406L16.7713 14.9654ZM8.88106 14.9654C5.60661 14.9654 2.96339 12.3222 2.96339 9.04774C2.96339 5.7733 5.60661 3.13008 8.88106 3.13008C12.1555 3.13008 14.7987 5.7733 14.7987 9.04774C14.7987 12.3222 12.1555 14.9654 8.88106 14.9654Z" fill="black"/>
</svg>
